<svg xmlns="http://www.w3.org/2000/svg" version="1.0" viewBox="264 279 522 550"><path fill="#fff" d="M594.8 291.3c-15.5 5.3-27.8 18.7-31.8 34.8l-1.2 4.6-10.7.7c-9.3.6-23.5 3-30.7 5.1-1.9.6-2.7-.3-6-6.7-7.7-14.8-23.7-27-41.4-31.4-10.2-2.6-25.2-1.5-36 2.5-9.9 3.7-14.5 6.5-22.3 13.9-14.1 13.5-21.9 34.2-20.2 53.5 2.3 26.6 18.8 49.3 42.2 58 3.7 1.4 8 2.8 9.6 3.2 3.2.6 3.1 1.6-1.4 13.6-5.6 14.6-13 24.1-40.5 51.4-29.4 29.3-38.2 40.3-48.5 60.7-6.9 13.6-14.8 37.3-17.4 52.3-.4 2.2-1.2 9.8-1.9 16.8l-1.1 12.8-4.9-4.8c-16.1-15.9-16.7-44.3-1.4-68 5.7-8.7 11.7-15.8 26.3-31.3 20.7-21.8 33.5-41.6 38.1-59 2.4-8.9 2.4-28.2 0-36.9-6.2-22.8-23-39.8-45.1-45.6-7.7-2-22.3-2-29.9 0-19.7 5.2-33.8 20.7-36.9 40.4-2.9 18.8 6.7 37.7 23.1 45.4 5.9 2.8 7.8 3.2 15.2 3.2 7.1 0 9.4-.4 14-2.6 12.1-5.6 18-14.3 18-26.1 0-11.2-4.5-18.9-13.5-23.4-6-2.9-8.7-2.6-11.2 1.2-2.1 3.3-.5 6.8 4.2 9.1 7.9 3.7 9.5 14.9 3.2 22-3.9 4.4-8.2 6.3-14.4 6.3-9.9-.1-18.9-7.4-22-17.9-3.9-13.7 3.8-29.5 17.6-36 4.7-2.2 7-2.6 14.1-2.6 7.3.1 9.4.5 14.4 3 17.2 8.2 25.5 28.6 19.7 48-2.5 8.7-9.2 20.1-16.2 27.9-2.9 3.2-12.1 12.1-20.3 19.8-17.7 16.4-27.9 27.5-34.9 37.7-22.4 33.2-24.6 75.6-5.5 108.6 3.8 6.6 7.8 11.6 15.2 19 11.1 11 19.8 16.6 34.4 22.1l8.5 3.2 4.9 9.8c6.9 14 14.8 23.6 26.2 32.1l5.8 4.3h-19.8c-11 0-21.5.5-23.5 1-8.1 2.2-15 9.4-19 19.7-1.9 4.9-2.3 7.8-2.3 18.8-.1 14.6 1.3 21.1 6.2 28.4 3.3 4.9 9.7 9.6 15.1 11.1 2.4.6 77.7 1 218.1 1 239.2 0 219 .6 219-6.9 0-4.4-1.9-6.5-7-7.8-4.7-1.2-7.5-5.6-9.6-15.1-1.5-6.6-1.6-8.9-.6-15.7.7-4.7 2.3-10.2 3.9-13.5 2.3-4.6 3.4-5.7 6.4-6.5 2-.6 4.4-1.6 5.3-2.4 2.3-1.9 2.1-7.6-.4-10.1-1.9-1.9-3.3-2-53.9-2h-51.8l-.7-4.3c-1.5-9.6-9.4-20.5-18-24.9-5-2.6-13-4.8-17.3-4.8-1.8 0-3.3-.3-3.3-.6 0-.4 1.5-3 3.4-5.8 11.1-16.9 16.2-37.6 13.6-55.3-1.8-11.6-6.4-24.8-11.6-33.3l-4.6-7.5.9-8.9c.9-10 2.4-11.8 4.8-5.9 5.2 12.3 19 17.6 31.2 11.8 15.4-7.1 17.7-33.4 4.5-50.8-4.6-6.2-12.9-11.3-24.5-15.4-9.2-3.2-16.6-9.2-19.2-15.5l-1.5-3.7 5.8-1.6c11.8-3.3 24-8.7 32.7-14.3 9.9-6.5 21-17.4 24.4-23.9l2.1-4.3 6.8 2.5c3.7 1.4 10.4 4.8 15 7.6 8.6 5.2 11.5 5.6 12.7 1.8 1-3.1-.4-5.7-4.8-8.8-5.2-3.5-16.9-9.4-22.1-11.1-3.5-1.1-3.8-1.4-3.2-4.3.3-1.7.9-3.3 1.2-3.6 1.3-1.3 17.1-.3 28.3 1.9 9.9 1.9 12.2 2.1 13.5 1.1 2.4-2 2-5.8-.8-7.6-3.8-2.5-21.1-5.7-31.9-5.9-9.5-.1-9.8-.2-10.4-2.5-.4-1.8 0-2.9 1.7-4.3 3.1-2.5 16.9-6.7 26.9-8.1 6.5-.9 8.7-1.7 9.7-3.2 1.2-1.8 1.1-2.4-.3-4.4-1.5-2.3-2-2.3-9.7-1.8-9 .7-17.1 2.6-25.9 6.2l-5.9 2.3-1-2.9c-4.2-12.2-17.5-33.9-28.4-46.5-3.7-4.4-7.3-8.6-8.1-9.5-1.1-1.3-.8-2.6 2.2-8.5 3.8-7.3 6.5-17.9 6.5-25.5 0-6.2-3.4-18.9-6.7-25.2-3.5-6.6-15.3-18.4-21.9-21.9-11.6-6.2-27.5-7.6-39.6-3.5m26.4 15.1c9.9 2.9 18.7 11.6 22.9 22.4 3.2 8.1 3.1 20.6 0 27.9-1.3 2.9-2.9 5.3-3.5 5.3s-4.3-2.3-8.1-5.1c-13.7-10-31.8-18.6-46.7-22.3l-8.7-2.1 2.4-5.9c1.3-3.3 3.7-7.5 5.3-9.5 3.4-4.2 11.2-9.8 15.6-11 4.8-1.4 15.8-1.3 20.8.3m-147.3 8.8c8.1 2.7 13.3 6.1 19.1 12.5 7.3 8 15 25.2 15 33.6 0 2.4 5.3 7.7 7.8 7.7 1.1 0 3.2-1 4.7-2.2 2.5-2 2.7-2.5 2.3-8l-.4-5.8 6.1-1.9c22.8-7.1 51.7-4.6 73.9 6.3 15.4 7.5 24.2 14 38.1 28 17.3 17.4 27.8 32.8 35 51.4 1.9 5 3.5 9.3 3.5 9.5 0 .3-4.6.7-10.2.9-12.5.5-18.1 2.8-20.4 8.5-2.8 6.7 1.3 13.3 11.6 18.7 7.7 4.1 7.8 4.6 2.3 9.8-10 9.5-28.4 8.9-34.8-1.2-2.8-4.4-5.7-5.5-8.6-3.1-1.8 1.4-2.1 2.4-1.5 5.4.8 4.4 8.1 12.8 13.2 15.2 2.8 1.3 3.4 1.9 2.3 2.6-4 2.2-23.2 5-38 5.6-15.5.6-16.1.7-18 3.1-3.9 5-1.3 10.5 5.6 11.8 2.1.4 9.3.4 16.1.2 6.8-.3 12.4-.2 12.4.1s1 6 2.1 12.6c2.7 15.9 3.7 48 1.9 63.6-5.8 52.4-32.4 92.2-74.8 111.6-7.3 3.3-7.4 3.3-12.5 1.8-2.8-.8-7.7-1.5-10.9-1.5s-5.8-.2-5.8-.5 1.5-2.6 3.4-5.2c11-15.6 16.3-37.1 13.8-56.8-3.8-29.9-20.1-53.6-45.7-66.6-12.9-6.4-18.3-7.9-33-8.6-10.3-.5-13.2-.3-20.5 1.6-9.4 2.4-20.3 7.1-23.7 10.3-2.9 2.7-3 7.1-.3 9.8s5.6 2.5 12.6-1c18.2-9 40.9-8.2 59.7 2.3 16.1 9 29.2 26.4 33.8 44.7 1.8 7.1 1.8 26.9 0 34-3.4 13.9-12.7 27.8-24.1 36.2-7.2 5.2-8.6 7.3-7.6 11.3 1.1 4.2 3.4 4.7 18.4 3.6 15.7-1.2 25.7-.2 30.9 3 4.1 2.5 8.1 7.6 9.3 11.8l.9 3.1h-51.7c-65.8 0-71.9-.7-90.9-10-16.7-8.2-27.9-21-35.5-40.6-12.4-32-11.2-83.5 2.8-117.2 12.1-29.2 21.8-42.3 56.2-75.7 9-8.8 19-19.2 22.3-23.2 10.1-12.7 17.3-26.5 20.9-40.3l1.6-6.5 7.5-1.6c4.1-.8 8.4-2.1 9.7-2.8 5-2.7 4.8-9.4-.3-12.7-2.3-1.5-3.4-1.6-8.9-.6-24.9 4.6-45.7-5.2-56.4-26.6-7.9-15.8-8-30.3-.4-46.6 10.6-22.4 35.2-33.3 58.1-25.4m-96.4 115.3c10.1 21.4 6 46.9-11.3 70.1-3.2 4.4-12.9 15.4-21.6 24.6s-17.6 19-19.8 21.8c-7 8.8-13.7 21-17 30.9-2.8 8.5-3.1 10.9-3.2 21.6-.1 9.7.3 13.3 2.1 19 4.2 13.4 13.2 25.2 24.6 32.2 4.8 3 5.7 4 5.7 6.5 0 1.6.7 7.6 1.6 13.4s1.4 10.7 1.1 11c-1.2 1.2-15.5-6.9-22.5-12.7-9.4-7.7-15.3-15.3-20.7-26.4-6.7-13.7-8-19.6-7.9-36 0-15.3 1.2-21.9 6.4-35.3 6-15.5 12.9-24.3 41-52.2 17.7-17.6 27.1-27.8 30.5-32.9 8.7-13.3 13.6-32.5 11.5-45.6-1.1-6.9-3.4-14-5.3-16.4-1.1-1.4-1-1.4.5-.2 1 .7 2.9 3.7 4.3 6.6m262.5 123c16.9 6.7 20.2 9.4 23.6 18.6 2.2 6.1 2.2 15.7 0 19.1-4.5 6.9-12.1 5.4-15.2-2.9-3.3-9-7-12.3-13.4-12.3-3 0-3 0-3.1-5.8 0-3.1-.4-9-.8-13-.8-8.3-1.6-8 8.9-3.7m-13.4 83.2c2.2 5.2 4.4 17.5 4.4 24.6-.1 16.2-6.8 32.5-18.3 44-4 3.9-8.9 8.5-10.9 10-3.1 2.2-3.8 3.4-3.8 6.1 0 5.7 1.2 6 21.4 6.1 18 0 18.1 0 22.8 2.8 2.9 1.7 5.7 4.4 7.3 7.1 4.8 8.3 8.6 7.7-46.2 7.4l-48.7-.3-1.2-4.7c-.6-2.6-2.3-6.8-3.8-9.4-1.4-2.6-2.5-4.8-2.4-4.9.2-.1 3.8-2 8.1-4.3 32.3-17.2 53.6-42.6 65.9-78.5 1.8-5.3 3.4-9.7 3.6-9.7s1 1.6 1.8 3.7M362 760.3c0 .2-.9 3.9-2 8.2-1.3 5.2-2 11.1-2 17.5s.7 12.3 2 17.5c1.1 4.3 2 8 2 8.2s-2.1.3-4.7.1l-4.8-.3-1.7-6.9c-2.8-11.2-3.2-20-1.4-30.6 2.1-12 3.4-14 8.6-14 2.2 0 4 .2 4 .3m22.1 1.7c-3.5 12.5-4 15.6-4 24.1-.1 7.3.5 11.7 2.2 17.8l2.4 8.1h-9.6l-2-6.8c-1.1-3.7-2.3-9.7-2.6-13.4-.9-9.5 1.8-26.8 4.8-30.6 1.5-1.9 9.3-1.2 8.8.8m150.9-1.7c0 .2-.9 3.9-2 8.2-3 11.9-2.4 29.2 1.5 41.6.6 1.7.1 1.9-3.8 1.9-5 0-5.6-.8-7.8-10.6-2.7-12.2-.5-38.1 3.4-40.6 1.2-.8 8.7-1.1 8.7-.5m20.7 6.2c-3.1 8.6-3.1 30.1 0 39.2l2.1 6.3H553c-3.4 0-5-.4-5.4-1.6-4.6-11.9-4.8-35.7-.5-46.6.9-2.3 1.8-2.7 5.8-3 2.5-.2 4.7-.3 4.8-.3s-.8 2.7-2 6m194.8-4.8c-.4 1-1.4 3.7-2.2 6l-1.5 4.3h-68.5c-45.2 0-69.1.4-70.4 1-2.1 1.2-2.5 5-.7 6.8.9.9 17.7 1.2 69.5 1.2H745v10h-66.7c-36.8 0-67.8.3-69.1.6-2.6.8-3.9 4.8-2.2 6.9 1.1 1.3 10.4 1.5 70.4 1.5h69.1l2 5.2c1.1 2.9 2.1 5.6 2.3 6 .2.5-33.1.7-74 .5-68.8-.2-74.5-.3-77.5-2-8.1-4.4-11.6-11.6-11.7-23.7 0-7.3.4-9.2 2.7-13.7 3.3-6.4 8.1-10.2 14.4-11.3 2.6-.4 36.7-.8 75.7-.9 67.1-.1 70.8 0 70.1 1.6"/><path fill="#fff" d="M450.3 329c-11.6 2.4-22.3 13.3-19.4 19.7 1.6 3.6 5.4 2.9 10-1.7 13.4-13.6 31.9-6.7 36.7 13.6 4.1 17.1 5.4 20.4 9.4 24.4 6.3 6.3 11.4 6.5 13.4.7.8-2.3.6-3.1-1.6-5.4-4.4-4.9-5.8-7.8-8.3-18.2-3-12.5-7-20.4-12.7-25.7-6.6-6.1-18.4-9.3-27.5-7.4m104.9 75.9c-4.7 3-7.2 7.7-7.2 13.6 0 9.1 6.2 15.5 15 15.5 11.5 0 18.5-11.9 13.4-22.6-3.5-7.4-14.4-10.7-21.2-6.5m12.3 45.5c-10.2 1.7-27.3 6.3-30.2 8.2-2.7 1.7-3 5.6-.7 7.5 1.3 1 3.8.7 14.7-1.9 19-4.5 26.4-5.4 43.1-5 12.8.3 15 .1 15.9-1.3 1.3-2.1.1-6.5-2-7.4-3.5-1.4-32.6-1.5-40.8-.1m26.5 18c-11.3 3.1-17.9 5.8-27.3 11.4-9.8 5.8-14.7 9.9-14.7 12.1 0 2 3 5.1 4.9 5.1.8 0 5.3-2.5 10-5.5 10.7-6.7 21.8-11.6 33.7-14.5 10-2.5 11.4-3.3 11.4-6.4 0-5.2-4.7-5.8-18-2.2M513 515c-2.8 2.8-2.5 5.2 1.7 13.2 4.3 8.3 12.9 16.5 21.8 20.8 3.3 1.7 11.4 4.3 18 6 13.7 3.4 18.8 6.4 22.3 12.8 1.3 2.3 2.6 6.6 2.9 9.6 1.2 11.4-2.2 17.6-9.7 17.6-5 0-7.1-1.9-9.5-8.8-1.1-2.9-3.2-6.4-4.8-8l-2.8-2.7-18.2.3c-13.6.3-20 0-25.5-1.2q-22.05-4.65-33.9-21.3c-5.7-8.1-6-8.4-9.8-8.1-2 .2-3.4 1.2-4.4 2.9-1.4 2.5-1.3 3.1 1.7 9.2 6.5 13.1 23.4 25.6 41.2 30.3 6.5 1.7 27.7 2.5 37.9 1.4l4.4-.4 1.6 4.4c2.1 5.9 9.6 13.5 14.7 14.9 8.6 2.4 16.3.7 22.8-5.1 7.6-6.6 10.1-17.9 7.2-31.7-3.6-16.9-12.6-24.6-34.9-29.8-17.6-4.1-25.3-8.9-32.3-20.4-4.9-8.1-8.5-9.8-12.4-5.9"/></svg>
